<svg width="274" height="102" viewBox="0 0 274 102" fill="none" xmlns="http://www.w3.org/2000/svg">
<path d="M269.788 22.9804C268.903 21.069 267.522 19.4616 265.645 18.1801C263.745 16.8986 261.393 16.2687 258.523 16.2687C254.012 16.2687 249.351 17.2461 244.581 19.1793C239.79 21.1341 234.978 23.5668 230.122 26.5208C225.266 29.4531 220.432 32.646 215.62 36.0345C210.807 39.4446 206.124 42.6158 201.57 45.5481C197.017 48.5021 192.636 50.9348 188.449 52.8896C184.262 54.8445 180.378 55.8002 176.774 55.8002C175.306 55.8002 174.098 55.5178 173.191 54.9314C172.263 54.3449 171.81 53.2155 171.81 51.4995C171.81 50.5221 171.983 49.2623 172.328 47.6767C172.673 46.0911 173.083 44.4403 173.58 42.7027C174.055 40.965 174.573 39.2057 175.134 37.4463C175.695 35.6869 176.191 34.1013 176.644 32.7112C177.011 31.6469 177.335 30.5826 177.615 29.5183C177.896 28.454 178.026 27.3679 178.026 26.2602C178.026 24.8266 177.529 23.5885 176.515 22.5677C175.501 21.5468 174.292 21.0472 172.846 21.0472C172.436 21.0472 172.112 21.069 171.875 21.1124C170.817 21.2427 169.631 21.8075 168.357 22.7414C167.062 23.6971 165.746 24.8918 164.386 26.3471C163.027 27.8023 161.689 29.4097 160.351 31.1473C159.013 32.885 157.739 34.6226 156.552 36.3168C156.747 35.1222 156.898 34.0144 157.027 33.0153C157.157 32.0161 157.286 31.169 157.372 30.474C157.459 29.7789 157.545 29.0839 157.61 28.3454C157.675 27.6286 157.718 26.9118 157.718 26.2167C157.718 24.7832 157.2 23.5451 156.207 22.5242C155.214 21.5034 153.963 21.0038 152.538 21.0038C152.301 21.0038 151.956 21.0472 151.502 21.1341C150.208 21.3296 148.762 22.1115 147.122 23.5234C145.481 24.9352 143.841 26.6077 142.179 28.5626C140.518 30.5174 138.921 32.5809 137.388 34.7747C135.856 36.9684 134.497 38.9667 133.353 40.7261C133.763 38.8799 134.324 37.0119 135.015 35.1656C135.705 33.3194 136.504 31.56 137.432 29.8875C137.928 28.9535 138.446 28.1499 138.942 27.4114C139.439 26.6946 139.698 25.7823 139.698 24.6746C139.698 23.241 139.18 22.0029 138.187 20.9821C137.194 19.9612 135.943 19.4616 134.518 19.4616C133.094 19.4616 131.885 19.9395 131.022 20.8952C130.159 21.8509 129.425 22.8935 128.778 24.0664C127.85 25.6954 126.965 27.5634 126.123 29.692C125.282 31.8207 124.505 34.0362 123.836 36.2951C123.792 36.4254 123.771 36.5775 123.728 36.7078C123.728 36.7078 123.728 36.7295 123.706 36.7512C123.533 37.0988 123.404 37.4029 123.253 37.6852C122.649 38.7061 121.893 39.8573 120.965 41.1171C120.037 42.3769 119.001 43.7018 117.858 45.0485C116.714 46.3952 115.484 47.6984 114.167 48.9365C112.851 50.1963 111.513 51.304 110.153 52.3032C108.794 53.3023 107.477 54.106 106.182 54.6925C104.887 55.3006 103.7 55.6047 102.6 55.6047C101.413 55.6047 100.42 55.3006 99.6217 54.6707C98.8447 54.0408 98.1973 53.2372 97.7225 52.238C97.2477 51.2389 96.8593 50.1094 96.6219 48.8713C96.3629 47.6115 96.2119 46.3735 96.1687 45.1137C96.1255 43.8539 96.1255 42.681 96.2119 41.5298C96.2982 40.3786 96.3629 39.4446 96.4492 38.7061C97.7441 38.25 99.1469 37.3811 100.701 36.1431C102.233 34.8833 103.765 33.3845 105.297 31.6252C106.808 29.8658 108.297 27.9327 109.722 25.8258C111.146 23.7189 112.419 21.612 113.52 19.5268C114.62 17.4416 115.505 15.4433 116.174 13.5102C116.843 11.5988 117.167 9.92628 117.167 8.53616C117.167 7.14604 116.951 5.90797 116.52 4.84366C116.088 3.77935 115.484 2.86708 114.728 2.12858C113.973 1.39008 113.088 0.825344 112.095 0.456093C111.103 0.0868429 110.024 -0.108643 108.88 -0.108643C107.542 -0.108643 106.204 0.304049 104.844 1.15115C103.485 1.97654 102.362 2.86708 101.499 3.80107C99.6001 5.79936 97.8952 8.18863 96.3629 10.9689C94.8307 13.7491 93.4927 16.7031 92.3489 19.8309C91.2266 22.9586 90.3202 26.1299 89.6512 29.3445C88.9822 32.5592 88.5722 35.6218 88.4427 38.4889C85.6803 39.2708 82.5295 39.6618 78.9902 39.6618C74.6092 39.6618 70.5304 39.2057 66.7753 38.2717C63.0202 37.3377 59.4809 36.1648 56.2438 34.7312C53.0066 33.2977 49.9637 31.7121 47.1582 29.9744C44.3526 28.2368 41.6982 26.5643 39.1732 24.9787C36.6698 23.3713 34.2959 21.9595 32.0515 20.6997C29.8286 19.4399 27.6273 18.5928 25.4477 18.1367C22.9658 17.5719 20.6567 17.3113 18.5417 17.3113C15.3693 17.3113 12.6501 17.8326 10.4273 18.8752C8.18284 19.9178 6.39161 21.221 5.01042 22.7632C3.62924 24.3053 2.67967 25.9995 2.14015 27.8023C1.60062 29.6052 1.47114 31.2994 1.73011 32.8415C1.98908 34.3837 2.61493 35.6869 3.62924 36.7295C4.64355 37.7721 6.00315 38.2934 7.70805 38.2934C8.85185 38.2934 10.0604 38.0545 11.2905 37.5983C11.8948 37.3594 12.1969 37.1639 12.1969 36.9684C12.1969 36.773 11.8732 36.4906 11.2258 36.0562C10.2115 35.4046 9.41295 34.4706 8.85185 33.2325C8.26916 32.0161 7.98861 30.865 7.98861 29.8006C7.98861 28.2368 8.31232 26.8684 8.98133 25.7389C9.65035 24.6094 10.5136 23.6754 11.6142 22.9586C12.7149 22.2419 13.9234 21.6989 15.283 21.3513C16.6426 21.0038 18.0022 20.83 19.3834 20.83H20.074C20.3114 20.83 20.5272 20.8517 20.7646 20.8952C23.6564 21.1341 26.462 21.8075 29.1812 22.9369C31.9004 24.0664 34.6412 25.4131 37.4251 26.977C40.2091 28.5408 43.1009 30.1699 46.1007 31.9075C49.1005 33.6452 52.3376 35.2308 55.8338 36.6643C59.3299 38.0979 63.1497 39.2925 67.2933 40.2048C71.4368 41.1388 76.0336 41.5732 81.1051 41.5298C81.882 41.5298 82.9179 41.5298 84.2128 41.4863C85.5077 41.4646 86.8889 41.3343 88.3564 41.0954C88.3564 43.1805 88.5938 45.4395 89.047 47.8722C89.5002 50.3049 90.2555 52.5638 91.2914 54.6056C92.3273 56.669 93.7085 58.385 95.4781 59.7534C97.2262 61.1218 99.3843 61.7951 101.974 61.7951C104.283 61.7951 106.592 61.1435 108.945 59.8402C111.297 58.537 113.52 56.9297 115.635 55.0183C117.75 53.1069 119.714 51.0434 121.505 48.8713C121.57 48.8062 121.613 48.741 121.677 48.6541C121.677 48.8279 121.656 49.0234 121.656 49.2189C121.656 50.6524 122.152 51.8905 123.167 52.9114C124.181 53.9322 125.389 54.4318 126.835 54.4318C128.173 54.4318 129.317 53.9974 130.288 53.1069C131.259 52.238 131.799 51.1086 131.95 49.7619C132.036 49.675 132.08 49.6098 132.08 49.5447C132.943 47.7853 133.979 45.9173 135.187 43.9408C136.374 41.9642 137.669 40.031 139.029 38.0979C140.388 36.1865 141.769 34.3402 143.215 32.5809C144.661 30.8215 145.999 29.3011 147.294 27.9978C147.165 29.3011 146.949 30.7781 146.711 32.4506C146.452 34.123 146.15 35.7955 145.805 37.4897C145.46 39.1839 145.093 40.7913 144.704 42.3117C144.316 43.8322 143.906 45.0919 143.496 46.0694C143.215 46.721 142.978 47.1988 142.762 47.5247C142.546 47.8505 142.46 48.4152 142.46 49.1971C142.46 50.6307 142.956 51.8688 143.971 52.8896C144.985 53.9105 146.194 54.4101 147.639 54.4101C148.783 54.4101 149.754 54.106 150.531 53.4978C151.308 52.8896 151.977 52.1511 152.495 51.2389C153.013 50.3266 153.466 49.3492 153.812 48.2849C154.157 47.2206 154.437 46.2431 154.675 45.3743C155.236 44.3969 155.991 43.1805 156.962 41.6818C157.934 40.2048 158.991 38.6409 160.178 36.9902C161.343 35.3394 162.574 33.7104 163.868 32.0813C165.163 30.4523 166.415 29.0404 167.667 27.8458C167.537 28.9101 167.3 30.0396 166.976 31.2559C166.652 32.4723 166.35 33.5366 166.07 34.4489C165.293 37.1856 164.516 39.9659 163.717 42.833C162.94 45.6784 162.552 48.5238 162.552 51.3475C162.552 53.4327 162.962 55.3658 163.76 57.1252C164.559 58.8845 165.962 60.2312 167.947 61.1652C168.444 61.4041 169.005 61.5779 169.566 61.7299C170.148 61.8603 170.688 61.9471 171.184 61.9471C173.494 61.9471 176.126 61.3607 179.126 60.2095C182.126 59.0583 185.342 57.5161 188.794 55.583C192.247 53.6499 195.873 51.4778 199.671 49.0234C203.47 46.569 207.333 44.0494 211.239 41.4429C215.145 38.8581 219.073 36.2951 222.979 33.7972C226.885 31.2994 230.683 29.0404 234.33 27.0638C237.999 25.0655 241.495 23.4365 244.819 22.155C248.164 20.8735 251.185 20.1784 253.904 20.0264H254.53C256.365 20.0264 257.94 20.4391 259.257 21.2862C260.573 22.1115 261.63 23.1759 262.472 24.4574C263.292 25.7389 263.918 27.1507 264.328 28.6929C264.738 30.2351 264.975 31.7555 265.019 33.2542C265.062 34.5575 265.191 35.5566 265.429 36.2734C265.666 36.9902 265.99 37.3594 266.4 37.3594C267.004 37.3594 267.738 36.7078 268.601 35.4046C269.896 33.4497 270.63 31.3645 270.802 29.1056C270.975 26.8684 270.63 24.7832 269.766 22.85L269.788 22.9804ZM98.0031 30.5174C98.5858 28.8015 99.2764 26.9552 100.118 25.0004C100.938 23.0238 101.888 21.0255 102.924 18.9621C103.959 16.8986 105.038 14.9872 106.161 13.1844C107.283 11.4033 108.448 9.8394 109.614 8.53616C110.779 7.23292 111.923 6.32066 113.023 5.86453C113.067 5.86453 113.11 5.86453 113.153 5.79936C113.434 5.79936 113.585 6.12517 113.628 6.77679C113.671 7.42841 113.692 8.05831 113.692 8.64476C113.692 9.75252 113.412 11.0775 112.872 12.5979C112.311 14.1184 111.578 15.7474 110.671 17.4633C109.765 19.1793 108.707 20.9169 107.52 22.6763C106.355 24.4356 105.146 26.0864 103.895 27.6503C102.643 29.1925 101.413 30.6043 100.161 31.8641C98.9095 33.1239 97.7873 34.0579 96.773 34.7095C97.0104 33.6452 97.3988 32.2551 97.9815 30.5391L98.0031 30.5174Z" fill="#F1F2DA"/>
<path d="M0.5 101.87V83.3638H1.81644V100.675H12.8012V101.87H0.5Z" fill="#F1F2DA"/>
<path d="M25.9872 83.3638H27.131L34.9002 101.87H33.4974L30.994 95.7662H22.1026L19.5776 101.87H18.1533L25.9656 83.3638H25.9872ZM30.5408 94.6802L26.5483 84.9928L22.5558 94.6802H30.5408Z" fill="#F1F2DA"/>
<path d="M39.7775 83.3638L46.2086 93.6159L52.6613 83.3638H54.1289L46.8776 94.8757V101.87H45.5612V94.8323L38.3315 83.3638H39.7775Z" fill="#F1F2DA"/>
<path d="M71.7606 86.4481C71.4584 86.1223 71.1347 85.8182 70.7678 85.5792C70.401 85.3403 70.0125 85.1231 69.6025 84.9493C69.1924 84.7756 68.7392 84.667 68.2644 84.5801C67.7897 84.4932 67.2717 84.4498 66.7106 84.4498C64.9194 84.4498 63.6029 84.7973 62.7829 85.4706C61.9628 86.1657 61.5527 87.078 61.5527 88.2509C61.5527 89.0328 61.7254 89.6627 62.1138 90.1189C62.4807 90.575 63.0634 90.9442 63.8619 91.2266C64.6604 91.509 65.6747 91.7696 66.948 92.0303C68.286 92.3126 69.4298 92.6384 70.401 93.0077C71.3721 93.3769 72.1059 93.8982 72.6454 94.5281C73.1633 95.1798 73.4439 96.0486 73.4439 97.1346C73.4439 97.96 73.2928 98.6768 72.9691 99.2849C72.667 99.8931 72.2138 100.414 71.6311 100.805C71.0484 101.196 70.3578 101.5 69.5377 101.718C68.7392 101.935 67.8328 102.022 66.8617 102.022C65.8905 102.022 65.0057 101.913 64.1425 101.718C63.2792 101.5 62.4591 101.196 61.7038 100.805C60.9485 100.414 60.2363 99.8931 59.5889 99.2632L60.2795 98.1989C60.6679 98.6116 61.078 98.9809 61.5527 99.3067C62.0275 99.6325 62.5455 99.8931 63.1066 100.132C63.6677 100.349 64.272 100.545 64.8978 100.675C65.5452 100.805 66.1927 100.871 66.8833 100.871C68.4803 100.871 69.7535 100.566 70.6599 99.98C71.5663 99.3935 72.0195 98.4813 72.0195 97.3084C72.0195 96.483 71.8037 95.8314 71.3937 95.3318C70.9836 94.8322 70.3362 94.4195 69.473 94.0937C68.6097 93.7679 67.5307 93.4638 66.2358 93.2032C64.941 92.9208 63.8403 92.6167 62.9339 92.2692C62.0275 91.9217 61.3369 91.4438 60.8837 90.8574C60.4305 90.2709 60.1931 89.4672 60.1931 88.4681C60.1931 87.3603 60.4737 86.4263 61.0132 85.6444C61.5527 84.8625 62.3297 84.2977 63.3008 83.885C64.2935 83.4941 65.4157 83.2769 66.689 83.2769C67.4875 83.2769 68.2213 83.3637 68.9119 83.5158C69.6025 83.6678 70.2283 83.9068 70.811 84.2326C71.3937 84.5584 71.9332 84.9493 72.4296 85.4489L71.7606 86.4915V86.4481Z" fill="#F1F2DA"/>
<path d="M104.974 100.675V101.87H92.7157V83.3638H104.736V84.5584H94.0321V91.8348H103.377V92.986H94.0321V100.675H104.952H104.974Z" fill="#F1F2DA"/>
<path d="M141.208 101.87V85.9485L133.979 98.4162H133.094L125.864 85.9485V101.87H124.548V83.3638H125.864L133.525 96.6133L141.187 83.3638H142.503V101.87H141.187H141.208Z" fill="#F1F2DA"/>
<path d="M157.783 83.3638H158.926L166.695 101.87H165.293L162.789 95.7662H153.898L151.373 101.87H149.949L157.761 83.3638H157.783ZM162.336 94.6802L158.344 84.9928L154.351 94.6802H162.336Z" fill="#F1F2DA"/>
<path d="M185.19 84.5584H178.457V101.87H177.141V84.5584H170.407V83.3638H185.19V84.5584Z" fill="#F1F2DA"/>
<path d="M206.944 83.3638V101.87H205.628V93.0077H194.017V101.87H192.701V83.3638H194.017V91.8131H205.628V83.3638H206.944Z" fill="#F1F2DA"/>
<path d="M228.655 100.675V101.87H216.397V83.3638H228.417V84.5584H217.713V91.8348H227.058V92.986H217.713V100.675H228.633H228.655Z" fill="#F1F2DA"/>
<path d="M244.322 102C242.855 102 241.625 101.739 240.654 101.218C239.683 100.697 238.884 99.98 238.301 99.0895C237.719 98.1989 237.287 97.1998 237.028 96.0703C236.769 94.9626 236.64 93.8114 236.64 92.6602V83.3638H237.956V92.6602C237.956 93.6593 238.064 94.6585 238.258 95.6359C238.474 96.6133 238.798 97.4822 239.272 98.2641C239.747 99.0461 240.395 99.6542 241.215 100.11C242.035 100.566 243.049 100.784 244.279 100.784C245.509 100.784 246.545 100.545 247.365 100.089C248.185 99.6108 248.833 99.0026 249.308 98.2207C249.782 97.4387 250.128 96.5699 250.322 95.6142C250.516 94.6585 250.624 93.6811 250.624 92.6819V83.3855H251.941V92.6819C251.941 93.92 251.811 95.0929 251.53 96.2224C251.272 97.3518 250.818 98.3293 250.214 99.1981C249.61 100.067 248.833 100.762 247.862 101.262C246.891 101.761 245.704 102.022 244.279 102.022L244.322 102Z" fill="#F1F2DA"/>
<path d="M271.838 86.4481C271.536 86.1223 271.212 85.8182 270.846 85.5792C270.479 85.3403 270.09 85.1231 269.68 84.9493C269.27 84.7756 268.817 84.667 268.342 84.5801C267.867 84.4932 267.349 84.4498 266.788 84.4498C264.997 84.4498 263.681 84.7973 262.861 85.4706C262.04 86.1657 261.63 87.078 261.63 88.2509C261.63 89.0328 261.803 89.6627 262.192 90.1189C262.558 90.575 263.141 90.9442 263.94 91.2266C264.738 91.509 265.752 91.7696 267.026 92.0303C268.364 92.3126 269.508 92.6384 270.479 93.0077C271.45 93.3769 272.184 93.8982 272.723 94.5281C273.241 95.1798 273.522 96.0486 273.522 97.1346C273.522 97.96 273.371 98.6768 273.047 99.2849C272.745 99.8931 272.291 100.414 271.709 100.805C271.126 101.196 270.435 101.5 269.615 101.718C268.817 101.935 267.911 102.022 266.939 102.022C265.968 102.022 265.083 101.913 264.22 101.718C263.357 101.5 262.537 101.196 261.782 100.805C261.026 100.414 260.314 99.8931 259.667 99.2632L260.357 98.1989C260.746 98.6116 261.156 98.9809 261.63 99.3067C262.105 99.6325 262.623 99.8931 263.184 100.132C263.745 100.349 264.35 100.545 264.976 100.675C265.623 100.805 266.27 100.871 266.961 100.871C268.558 100.871 269.831 100.566 270.738 99.98C271.644 99.3935 272.097 98.4813 272.097 97.3084C272.097 96.483 271.881 95.8314 271.471 95.3318C271.061 94.8322 270.414 94.4195 269.551 94.0937C268.687 93.7679 267.608 93.4638 266.314 93.2032C265.019 92.9208 263.918 92.6167 263.012 92.2692C262.105 91.9217 261.415 91.4438 260.961 90.8574C260.508 90.2709 260.271 89.4672 260.271 88.4681C260.271 87.3603 260.551 86.4263 261.091 85.6444C261.63 84.8625 262.407 84.2977 263.379 83.885C264.371 83.4941 265.493 83.2769 266.767 83.2769C267.565 83.2769 268.299 83.3637 268.99 83.5158C269.68 83.6678 270.306 83.9068 270.889 84.2326C271.471 84.5584 272.011 84.9493 272.507 85.4489L271.838 86.4915V86.4481Z" fill="#F1F2DA"/>
</svg>
