<?xml version="1.0" encoding="UTF-8"?><svg id="Camada_2" xmlns="http://www.w3.org/2000/svg" viewBox="0 0 16 16"><defs><style>.cls-1{fill:#4f533c;}.cls-1,.cls-2{stroke-width:0px;}.cls-2{fill:#fff;}</style></defs><g id="Camada_8"><rect class="cls-2" width="16" height="16"/><path class="cls-1" d="M2.33,12.44c-.38,0-.69-.1-.94-.3-.25-.2-.45-.45-.6-.75-.15-.3-.26-.63-.32-.98-.06-.35-.1-.68-.1-.98,0-.42.04-.88.13-1.37.09-.49.21-.98.38-1.47.16-.49.36-.95.6-1.38s.5-.81.79-1.11c.13-.13.29-.26.48-.38.2-.12.39-.18.58-.18.17,0,.32.03.46.08s.27.13.38.24c.11.11.2.24.26.39.06.15.1.33.1.53s-.05.44-.15.71-.22.56-.38.86c-.16.3-.34.6-.55.91-.21.3-.42.58-.64.83-.22.25-.44.47-.66.65-.22.18-.43.3-.61.37-.01.11-.03.24-.03.4-.01.16-.01.33,0,.51,0,.18.03.36.06.54.04.18.09.34.16.49.07.14.16.26.27.35.11.09.26.13.43.13.16,0,.33-.04.52-.13.19-.09.38-.2.57-.34.2-.14.39-.3.58-.49s.37-.37.53-.56c.17-.19.32-.38.45-.56.13-.18.24-.35.33-.49.02-.04.04-.09.06-.14.02-.05.05-.09.09-.12.08-.09.18-.14.29-.14.1,0,.19.04.26.12.08.08.11.16.11.26,0,.05-.02.11-.05.18-.03.07-.07.15-.12.22-.05.08-.09.15-.14.22-.05.07-.08.12-.11.16-.17.25-.39.54-.65.85s-.54.61-.85.88-.63.51-.97.69c-.34.19-.68.28-1.01.28ZM3.93,4.38c-.16.07-.32.19-.49.38-.17.19-.34.41-.5.67s-.32.53-.47.83c-.15.3-.28.59-.4.87-.12.28-.22.55-.3.79-.08.25-.14.45-.18.6.15-.09.31-.23.49-.41.18-.18.36-.38.54-.6s.35-.46.52-.71c.17-.25.32-.5.45-.75.13-.25.24-.48.32-.7.08-.22.12-.41.12-.57,0-.09,0-.18-.01-.27,0-.09-.03-.14-.07-.14,0,0-.01.01-.02.01Z"/><path class="cls-1" d="M5.18,10.63c0-.27.03-.57.09-.89s.13-.65.23-.97c.1-.33.21-.64.33-.95s.25-.58.38-.81c.09-.17.2-.32.32-.45.12-.14.29-.2.5-.2s.38.07.53.22c.15.15.22.32.22.53,0,.16-.04.29-.11.4s-.15.22-.22.36c-.13.24-.25.49-.35.76-.1.27-.18.53-.24.8.17-.25.36-.54.58-.85.22-.32.45-.61.69-.89.24-.28.48-.52.71-.72s.45-.32.63-.34c.07-.01.12-.02.15-.02.21,0,.38.07.53.22.15.15.22.32.22.53,0,.1,0,.2-.02.3,0,.1-.02.2-.03.3s-.03.22-.05.37c-.02.14-.04.3-.07.47.17-.25.36-.49.55-.74s.39-.48.58-.69c.2-.21.39-.38.57-.52.19-.14.36-.22.51-.23.03,0,.08-.01.14-.01.21,0,.38.07.53.22.15.15.22.32.22.53,0,.16-.02.32-.06.47-.04.15-.09.31-.14.46-.07.2-.15.43-.25.69-.1.26-.2.52-.29.78-.1.26-.18.52-.25.78-.07.25-.11.48-.11.68,0,.05,0,.09.02.13.01.04.03.08.06.11h0s.09.05.09.05c.13-.03.26-.1.41-.2s.3-.22.45-.37c.16-.14.31-.3.46-.46.15-.17.3-.34.43-.51.14-.17.26-.34.37-.5.11-.16.21-.31.28-.43.03-.04.05-.09.06-.14.02-.05.04-.09.08-.12.08-.09.18-.14.29-.14.1,0,.19.04.26.11.08.08.11.17.11.27,0,.07-.03.16-.09.27-.06.11-.11.19-.15.26-.08.14-.19.31-.32.51-.13.2-.28.41-.45.63-.17.22-.34.44-.53.66-.19.22-.38.42-.58.59-.2.17-.4.31-.59.42-.2.11-.38.16-.56.16-.07,0-.15-.01-.24-.03-.08-.02-.16-.05-.23-.08-.29-.13-.49-.33-.6-.58-.12-.25-.17-.53-.17-.83,0-.41.06-.81.17-1.22.11-.41.23-.81.34-1.2.04-.13.08-.29.13-.46s.08-.34.1-.49c-.18.17-.36.38-.55.61s-.36.47-.53.7c-.17.24-.32.46-.46.67s-.25.39-.33.53c-.03.13-.08.27-.12.42-.05.15-.11.29-.19.42s-.17.24-.28.32c-.11.09-.25.13-.42.13-.21,0-.38-.07-.53-.22-.15-.15-.22-.32-.22-.53,0-.11.02-.19.04-.24.03-.05.06-.12.11-.21.06-.14.12-.32.17-.54.06-.22.11-.45.16-.69.05-.24.09-.48.13-.72.04-.24.06-.45.09-.64-.19.19-.38.41-.59.66-.21.25-.41.52-.6.8-.2.28-.38.56-.55.84-.17.28-.32.55-.45.8,0,0,0,.02-.02.03-.02.19-.1.35-.24.48-.14.13-.31.19-.5.19-.21,0-.38-.07-.53-.22-.15-.15-.22-.32-.22-.53Z"/></g></svg>