<svg width="40" height="24" viewBox="0 0 40 24" fill="none" xmlns="http://www.w3.org/2000/svg">
<path d="M5.15788 23.5921C4.15788 23.5921 3.34209 23.3289 2.6842 22.8026C2.02631 22.2763 1.5 21.6184 1.10526 20.8289C0.710524 20.0394 0.421051 19.171 0.263157 18.25C0.105263 17.3289 0 16.4605 0 15.671C0 14.5658 0.105263 13.3553 0.342104 12.0658C0.578946 10.7763 0.894734 9.48685 1.3421 8.19738C1.76315 6.90791 2.28947 5.69739 2.92104 4.56581C3.55262 3.43424 4.23683 2.43424 4.99998 1.64477C5.34209 1.30266 5.76314 0.96056 6.26314 0.644772C6.78945 0.328983 7.28945 0.171089 7.78945 0.171089C8.23682 0.171089 8.63155 0.250036 8.99997 0.381615C9.36839 0.513193 9.71049 0.723719 9.99997 1.01319C10.2894 1.30266 10.5263 1.64477 10.6842 2.0395C10.8421 2.43424 10.9473 2.90792 10.9473 3.43424C10.9473 3.96055 10.8158 4.59213 10.5526 5.30265C10.2894 6.01318 9.97365 6.77633 9.5526 7.5658C9.13155 8.35527 8.65787 9.14474 8.10524 9.96053C7.55261 10.75 6.99998 11.4868 6.42103 12.1447C5.84209 12.8026 5.26314 13.3816 4.6842 13.8553C4.10525 14.3289 3.55262 14.6447 3.07894 14.8289C3.05262 15.1184 2.99999 15.4605 2.99999 15.8816C2.97367 16.3026 2.97367 16.75 2.99999 17.2237C2.99999 17.6973 3.07894 18.171 3.15788 18.6447C3.26315 19.1184 3.39473 19.5394 3.57894 19.9342C3.76315 20.3026 3.99999 20.6184 4.28946 20.8552C4.57893 21.0921 4.97367 21.1973 5.42104 21.1973C5.84209 21.1973 6.28945 21.0921 6.78945 20.8552C7.28945 20.6184 7.78945 20.3289 8.28945 19.9605C8.81576 19.5921 9.31576 19.171 9.81576 18.671C10.3158 18.171 10.7894 17.6973 11.2105 17.1973C11.6579 16.6973 12.0526 16.1974 12.3947 15.7237C12.7368 15.25 13.0263 14.8026 13.2631 14.4342C13.3157 14.3289 13.3684 14.1974 13.421 14.0658C13.4736 13.9342 13.5526 13.8289 13.6579 13.75C13.8684 13.5132 14.1315 13.3816 14.421 13.3816C14.6842 13.3816 14.921 13.4868 15.1052 13.6974C15.3157 13.9079 15.3947 14.1184 15.3947 14.3816C15.3947 14.5131 15.3421 14.671 15.2631 14.8553C15.1842 15.0395 15.0789 15.25 14.9473 15.4342C14.8157 15.6447 14.7105 15.8289 14.5789 16.0131C14.4473 16.1974 14.3684 16.3289 14.2894 16.4342C13.8421 17.0921 13.2631 17.8552 12.5789 18.671C11.8947 19.4868 11.1579 20.2763 10.3421 20.9868C9.52629 21.6973 8.68418 22.3289 7.78945 22.8026C6.89471 23.3026 5.99998 23.5394 5.13156 23.5394L5.15788 23.5921ZM9.36839 2.38161C8.94734 2.56582 8.52629 2.88161 8.07892 3.38161C7.63155 3.8816 7.18419 4.46055 6.76314 5.14476C6.34208 5.82897 5.92103 6.53949 5.5263 7.32896C5.13156 8.11843 4.78946 8.88159 4.47367 9.61843C4.15788 10.3553 3.89472 11.0658 3.6842 11.6974C3.47367 12.3553 3.31578 12.8816 3.21052 13.2763C3.60525 13.0395 4.0263 12.671 4.49999 12.1974C4.97367 11.7237 5.44735 11.1974 5.92103 10.6184C6.39472 10.0395 6.84208 9.4079 7.28945 8.75001C7.73682 8.09212 8.13155 7.43422 8.47366 6.77633C8.81576 6.11844 9.10523 5.51318 9.31576 4.93423C9.52629 4.35529 9.63155 3.85529 9.63155 3.43424C9.63155 3.1974 9.63155 2.96055 9.60523 2.72371C9.60523 2.48687 9.52629 2.35529 9.42102 2.35529C9.42102 2.35529 9.39471 2.38161 9.36839 2.38161Z" fill="white"/>
<path d="M12.658 18.8552C12.658 18.1447 12.7369 17.3552 12.8948 16.5131C13.0527 15.671 13.2369 14.8026 13.5001 13.9605C13.7632 13.0921 14.0527 12.2763 14.3685 11.4605C14.6843 10.6447 15.0264 9.93421 15.3685 9.32895C15.6053 8.88158 15.8948 8.48685 16.2106 8.14474C16.5264 7.77632 16.9737 7.61843 17.5264 7.61843C18.079 7.61843 18.5264 7.80264 18.9211 8.19737C19.3158 8.59211 19.5001 9.03948 19.5001 9.59211C19.5001 10.0132 19.3948 10.3553 19.2106 10.6447C19.0264 10.9342 18.8158 11.2237 18.6316 11.5921C18.2895 12.2237 17.9737 12.8816 17.7106 13.5921C17.4474 14.3026 17.2369 14.9868 17.079 15.6973C17.5264 15.0395 18.0264 14.2763 18.6053 13.4605C19.1843 12.6184 19.7895 11.8553 20.4211 11.1184C21.0527 10.3816 21.6843 9.75 22.2895 9.22369C22.8948 8.69737 23.4737 8.38158 23.9474 8.32895C24.1316 8.30264 24.2632 8.27632 24.3421 8.27632C24.8948 8.27632 25.3421 8.46053 25.7369 8.85527C26.1316 9.25 26.3158 9.69737 26.3158 10.25C26.3158 10.5132 26.3158 10.7763 26.2632 11.0395C26.2632 11.3026 26.2106 11.5658 26.1842 11.8289C26.1579 12.0921 26.1053 12.4079 26.0527 12.8026C26 13.171 25.9474 13.5921 25.8685 14.0395C26.3158 13.3816 26.8158 12.75 27.3158 12.0921C27.8158 11.4342 28.3421 10.8289 28.8421 10.2763C29.3684 9.72368 29.8684 9.27632 30.3421 8.9079C30.8421 8.53948 31.2895 8.32895 31.6842 8.30264C31.7632 8.30264 31.8947 8.27632 32.0526 8.27632C32.6053 8.27632 33.0526 8.46053 33.4474 8.85527C33.8421 9.25 34.0263 9.69737 34.0263 10.25C34.0263 10.671 33.9737 11.0921 33.8684 11.4868C33.7632 11.8816 33.6316 12.3026 33.5 12.6974C33.3158 13.2237 33.1053 13.8289 32.8421 14.5131C32.579 15.1974 32.3158 15.8816 32.079 16.5658C31.8158 17.25 31.6053 17.9342 31.4211 18.6184C31.2369 19.2763 31.1316 19.8815 31.1316 20.4079C31.1316 20.5394 31.1316 20.6447 31.1842 20.75C31.2105 20.8552 31.2632 20.9605 31.3421 21.0394L31.579 21.171C31.9211 21.0921 32.2632 20.9079 32.6579 20.6447C33.0526 20.3815 33.4474 20.0658 33.8421 19.671C34.2632 19.3026 34.6579 18.8815 35.0526 18.4605C35.4474 18.0131 35.8421 17.5658 36.1842 17.1184C36.5526 16.671 36.8684 16.2237 37.1579 15.8026C37.4474 15.3816 37.7105 14.9868 37.8947 14.671C37.9737 14.5658 38.0263 14.4342 38.0526 14.3026C38.1053 14.171 38.1579 14.0658 38.2631 13.9868C38.4737 13.75 38.7368 13.6184 39.0263 13.6184C39.2895 13.6184 39.5263 13.7237 39.7105 13.9079C39.921 14.1184 40 14.3552 40 14.6184C40 14.8026 39.921 15.0395 39.7631 15.3289C39.6052 15.6184 39.4737 15.8289 39.3684 16.0131C39.1579 16.3816 38.8684 16.8289 38.5263 17.3552C38.1842 17.8816 37.7895 18.4342 37.3421 19.0131C36.8947 19.5921 36.4474 20.171 35.9474 20.75C35.4474 21.3289 34.9474 21.8552 34.4211 22.3026C33.8947 22.75 33.3684 23.1184 32.8684 23.4079C32.3421 23.6973 31.8684 23.8289 31.3948 23.8289C31.2105 23.8289 31 23.8026 30.7632 23.75C30.5526 23.6973 30.3421 23.6184 30.1579 23.5394C29.3948 23.1973 28.8684 22.671 28.579 22.0131C28.2632 21.3552 28.1316 20.6184 28.1316 19.8289C28.1316 18.75 28.2895 17.6973 28.579 16.6184C28.8684 15.5395 29.1842 14.4868 29.4737 13.4605C29.579 13.1184 29.6842 12.6974 29.8158 12.25C29.9474 11.8026 30.0263 11.3553 30.079 10.9605C29.6053 11.4079 29.1316 11.9605 28.6316 12.5658C28.1316 13.171 27.6842 13.8026 27.2369 14.4079C26.7895 15.0395 26.3948 15.6184 26.0263 16.171C25.6579 16.7237 25.3685 17.1973 25.1579 17.5658C25.079 17.9079 24.9474 18.2763 24.8421 18.671C24.7106 19.0658 24.5527 19.4342 24.3421 19.7763C24.1316 20.1184 23.8948 20.4079 23.6053 20.6184C23.3158 20.8552 22.9474 20.9605 22.5 20.9605C21.9474 20.9605 21.5 20.7763 21.1053 20.3815C20.7106 19.9868 20.5264 19.5394 20.5264 18.9868C20.5264 18.6973 20.579 18.4868 20.6316 18.3552C20.7106 18.2237 20.7895 18.0394 20.9211 17.8026C21.079 17.4342 21.2369 16.9605 21.3685 16.3816C21.5264 15.8026 21.6579 15.1974 21.7895 14.5658C21.9211 13.9342 22.0264 13.3026 22.1316 12.671C22.2369 12.0395 22.2895 11.4868 22.3685 10.9868C21.8685 11.4868 21.3685 12.0658 20.8158 12.7237C20.2632 13.3816 19.7369 14.0921 19.2369 14.8289C18.7106 15.5658 18.2369 16.3026 17.7895 17.0394C17.3422 17.7763 16.9474 18.4868 16.6053 19.1447C16.6053 19.1447 16.6053 19.1973 16.5527 19.2237C16.5001 19.7237 16.2895 20.1447 15.9211 20.4868C15.5527 20.8289 15.1053 20.9868 14.6053 20.9868C14.0527 20.9868 13.6053 20.8026 13.2106 20.4079C12.8159 20.0131 12.6317 19.5658 12.6317 19.0131L12.658 18.8552Z" fill="white"/>
</svg>
